<svg id="Capa_1" enable-background="new 0 0 512 512" height="512" viewBox="0 0 512 512" width="512" xmlns="http://www.w3.org/2000/svg"><g><path d="m216.157 174.821c.058-22.035 16.673-40.308 38.162-42.772 4.101-.47 7.173-3.98 6.908-8.1-1.979-30.753 22.448-57.775 54.285-57.775 14.489 0 27.634 5.684 37.379 14.921 1.76-43.376-32.934-81.095-77.999-81.095-26.43 0-49.785 13.138-63.906 33.237-3.713 5.286-11.01 6.337-16.063 2.313-10.586-8.428-23.991-13.465-38.574-13.465-34.63 0-61.712 28.124-62.001 61.328-.057 6.487-5.574 11.543-12.033 10.95-34.852-3.201-66.854 23.903-67.51 60.618-.621 34.719 28.425 63.137 63.15 63.137h182.148c-23.816-.001-44.009-19.482-43.946-43.297z" fill="#dfebfa"/><path d="m63.519 175.954c.657-36.715 32.659-63.818 67.51-60.617 6.459.593 11.977-4.462 12.033-10.95.289-33.203 27.371-61.328 62.001-61.328 14.583 0 27.988 5.037 38.574 13.465 5.053 4.024 12.349 2.973 16.063-2.313 14.121-20.099 37.476-33.237 63.906-33.237 1.564 0 3.112.056 4.651.145-13.834-13.009-32.481-21.119-53.365-21.119-26.43 0-49.785 13.138-63.906 33.237-3.713 5.286-11.01 6.337-16.063 2.313-10.586-8.428-23.991-13.465-38.574-13.465-34.63 0-61.712 28.125-62.001 61.328-.056 6.487-5.574 11.543-12.033 10.95-34.852-3.201-66.854 23.903-67.51 60.618-.621 34.719 28.425 63.137 63.15 63.137h1.576c-10.154-11.202-16.301-25.998-16.012-42.164z" fill="#b1dbfc"/><g fill="#b1dbfc"><path d="m395.406 432.115c-.144-4.679-4.324-8.027-8.797-7.32l-39.164 6.178-19.187-11.078c-1.298-.749-1.298-2.622 0-3.371l19.187-11.078 39.164 6.179c.402.063.801.094 1.196.094 3.901 0 7.304-3.006 7.586-7.112.274-3.976-2.735-7.439-6.672-8.06l-20.31-3.205 19.868-11.471c3.61-2.084 5.151-6.684 3.175-10.354-2.044-3.797-6.803-5.129-10.51-2.989l-20.145 11.631 7.383-19.2c1.389-3.613.03-7.832-3.381-9.662-4.125-2.214-9.11-.268-10.735 3.959l-14.231 37.006-19.187 11.078c-1.298.749-2.919-.187-2.919-1.685v-22.155l24.933-30.828c2.692-3.329 2.117-8.238-1.316-10.849-3.317-2.523-8.1-1.717-10.721 1.524l-12.896 15.945v-22.942c0-4.168-3.212-7.802-7.377-7.927-4.311-.129-7.846 3.327-7.846 7.608v23.261l-12.896-15.945c-2.621-3.241-7.404-4.046-10.721-1.524-3.433 2.611-4.008 7.52-1.316 10.849l24.933 30.828v22.155c0 1.498-1.622 2.434-2.919 1.685l-19.187-11.078-14.231-37.006c-1.536-3.997-6.078-5.953-10.054-4.284-3.843 1.613-5.535 6.157-4.039 10.047l7.36 19.14-19.868-11.471c-3.609-2.084-8.363-1.12-10.554 2.426-2.267 3.669-1.042 8.458 2.666 10.598l20.145 11.631-20.31 3.205c-3.938.621-6.946 4.085-6.671 8.062.283 4.105 3.685 7.111 7.586 7.111.394 0 .794-.031 1.196-.094l39.164-6.179 19.187 11.078c1.298.749 1.298 2.622 0 3.371l-19.187 11.078-39.164-6.178c-4.235-.672-8.196 2.287-8.738 6.568-.523 4.133 2.565 7.869 6.68 8.519l20.258 3.196-19.928 11.505c-3.413 1.97-4.981 6.212-3.368 9.807 1.296 2.889 4.087 4.523 6.964 4.523 1.291 0 2.6-.329 3.799-1.021l20.145-11.631-7.372 19.17c-1.415 3.679.009 7.98 3.52 9.771 1.128.575 2.316.843 3.479.843 3.058 0 5.943-1.856 7.106-4.882l14.231-37.007 19.187-11.078c1.298-.749 2.919.187 2.919 1.685v22.155l-24.933 30.828c-2.692 3.329-2.117 8.238 1.316 10.849 3.317 2.523 8.1 1.717 10.721-1.524l12.896-15.945v22.942c0 4.168 3.212 7.802 7.377 7.927 4.31.129 7.846-3.327 7.846-7.608v-23.261l13.097 16.193c1.504 1.86 3.704 2.826 5.923 2.826 1.681 0 3.373-.555 4.782-1.694 3.269-2.644 3.775-7.436 1.132-10.705l-24.933-30.828v-22.155c0-1.498 1.622-2.434 2.919-1.685l19.187 11.078 14.231 37.007c1.163 3.025 4.047 4.882 7.106 4.882 1.163 0 2.351-.268 3.479-.843 3.511-1.791 4.935-6.093 3.52-9.771l-7.372-19.17 20.145 11.631c1.199.692 2.507 1.021 3.799 1.021 2.878 0 5.669-1.635 6.965-4.524 1.612-3.595.043-7.835-3.369-9.805l-19.928-11.506 20.32-3.206c3.819-.606 6.793-3.891 6.674-7.759z"/><path d="m161.489 320.466 12.989-7.499 31.934 5.038c.402.063.801.094 1.196.094 3.901 0 7.304-3.006 7.586-7.112.274-3.976-2.735-7.439-6.672-8.06l-13.08-2.064 13.166-7.601c3.61-2.084 5.151-6.682 3.176-10.353-2.044-3.798-6.804-5.131-10.511-2.99l-13.442 7.76 4.848-12.607c1.508-3.924-.449-8.328-4.373-9.836-3.922-1.511-8.328.448-9.836 4.372l-11.604 30.175-12.989 7.499c-1.298.749-2.919-.187-2.919-1.685v-14.998l20.13-24.889c2.62-3.239 2.41-8.083-.749-10.8-3.269-2.813-8.194-2.351-10.888.979l-8.494 10.502v-15.202c0-4.168-3.212-7.802-7.377-7.927-4.311-.129-7.846 3.327-7.846 7.608v15.521l-8.294-10.255c-2.621-3.241-7.404-4.046-10.721-1.524-3.433 2.611-4.008 7.52-1.316 10.849l20.331 25.137v14.998c0 1.498-1.622 2.434-2.919 1.685l-12.989-7.499-11.489-29.876c-1.496-3.89-5.798-6.13-9.731-4.752-4.07 1.426-6.128 5.92-4.592 9.917l4.848 12.608-13.442-7.761c-3.708-2.141-8.469-.807-10.512 2.991-1.974 3.67-.432 8.269 3.177 10.353l13.164 7.6-13.08 2.064c-3.938.621-6.946 4.085-6.671 8.062.283 4.105 3.685 7.111 7.586 7.111.394 0 .794-.031 1.196-.094l31.934-5.038 12.989 7.499c1.298.749 1.298 2.622 0 3.371l-12.989 7.499-31.934-5.038c-4.233-.671-8.196 2.287-8.738 6.567-.524 4.133 2.564 7.87 6.68 8.519l13.028 2.056-13.225 7.635c-3.412 1.97-4.981 6.212-3.368 9.807 1.296 2.889 4.087 4.523 6.964 4.523 1.291 0 2.6-.329 3.799-1.021l13.442-7.761-4.748 12.346c-1.414 3.676.011 7.972 3.519 9.762 1.129.576 2.319.845 3.483.845 3.058 0 5.943-1.856 7.106-4.882l11.604-30.176 12.988-7.499c1.298-.749 2.919.187 2.919 1.685v14.999l-20.13 24.888c-2.62 3.24-2.41 8.083.748 10.801 3.269 2.813 8.194 2.352 10.887-.979l8.494-10.502v15.202c0 4.168 3.212 7.802 7.377 7.927 4.31.129 7.846-3.327 7.846-7.608v-15.521l8.494 10.502c1.504 1.86 3.704 2.826 5.923 2.826 1.775-.001 3.56-.618 5.013-1.888 3.112-2.722 3.325-7.512.725-10.727l-20.155-24.92v-14.999c0-1.498 1.622-2.434 2.919-1.685l12.989 7.499 11.604 30.176c1.164 3.025 4.048 4.882 7.106 4.882 1.165 0 2.354-.269 3.483-.845 3.508-1.79 4.933-6.086 3.519-9.762l-4.748-12.346 13.442 7.761c1.199.692 2.507 1.021 3.799 1.021 2.878 0 5.669-1.635 6.965-4.524 1.612-3.595.043-7.835-3.369-9.805l-13.225-7.636 13.027-2.055c4.118-.65 7.207-4.39 6.68-8.526-.546-4.277-4.509-7.226-8.737-6.561l-31.934 5.038-12.989-7.499c-1.294-.751-1.294-2.623.003-3.372z"/></g><g fill="#dfebfa"><circle cx="276.87" cy="270.486" r="15.601"/><circle cx="363.834" cy="300.024" r="13.514"/><circle cx="121.323" cy="439.958" r="15.415"/><circle cx="179.265" cy="484.207" r="20.181"/></g><path d="m276.684 270.486c0-5.81 3.183-10.869 7.894-13.554-2.275-1.297-4.901-2.047-7.707-2.047-8.616 0-15.601 6.985-15.601 15.601s6.985 15.601 15.601 15.601c2.806 0 5.432-.751 7.707-2.047-4.711-2.685-7.894-7.744-7.894-13.554z" fill="#b1dbfc"/><path d="m365.735 300.024c0-4.596 2.3-8.651 5.806-11.092-2.187-1.523-4.84-2.421-7.707-2.421-7.463 0-13.514 6.05-13.514 13.513s6.05 13.514 13.514 13.514c2.867 0 5.52-.899 7.707-2.421-3.506-2.442-5.806-6.496-5.806-11.093z" fill="#b1dbfc"/><path d="m121.323 439.958c0-5.702 3.104-10.669 7.707-13.335-2.269-1.314-4.896-2.079-7.707-2.079-8.513 0-15.415 6.901-15.415 15.415 0 8.513 6.901 15.414 15.415 15.414 2.811 0 5.438-.765 7.707-2.079-4.602-2.667-7.707-7.634-7.707-13.336z" fill="#b1dbfc"/><path d="m174.498 484.207c0-8.415 5.154-15.62 12.474-18.649-2.375-.983-4.976-1.532-7.707-1.532-11.146 0-20.181 9.035-20.181 20.181s9.035 20.181 20.181 20.181c2.731 0 5.332-.549 7.707-1.532-7.32-3.028-12.474-10.234-12.474-18.649z" fill="#b1dbfc"/><path d="m482.714 142.453c-9.064-8.122-21.126-12.15-33.099-11.051-2.017.183-3.955-.459-5.453-1.814-1.492-1.349-2.358-3.286-2.376-5.313-.207-23.834-19.81-43.224-43.698-43.224-9.988 0-19.388 3.282-27.187 9.491-1.591 1.268-3.565 1.806-5.555 1.521-1.992-.287-3.733-1.362-4.903-3.028-10.281-14.633-27.078-23.369-44.933-23.369-15.329 0-29.535 6.148-40.004 17.312-10.363 11.052-15.754 25.997-14.788 41.004.245 3.798-2.592 7.12-6.458 7.563-21.953 2.516-38.553 21.12-38.611 43.274-.03 11.41 4.51 22.263 12.784 30.558 8.396 8.418 19.939 13.246 31.669 13.246h192.597c11.919 0 23.575-4.908 31.981-13.465 8.279-8.429 12.724-19.45 12.517-31.033-.218-12.25-5.362-23.498-14.483-31.672z" fill="#dfebfa"/><g><path d="m282.221 207.408c-8.274-8.295-12.814-19.148-12.784-30.558.059-22.154 16.658-40.758 38.611-43.274 3.867-.444 6.703-3.766 6.458-7.563-.965-15.007 4.425-29.952 14.788-41.004 4.362-4.652 9.381-8.419 14.852-11.247-8.514-5.21-18.397-8.095-28.636-8.095-15.329 0-29.535 6.148-40.004 17.312-10.363 11.052-15.754 25.997-14.788 41.004.245 3.798-2.592 7.12-6.458 7.563-21.953 2.516-38.553 21.12-38.611 43.274-.03 11.41 4.51 22.263 12.784 30.558 8.396 8.418 19.939 13.246 31.669 13.246h40.653c-6.917-2.164-13.33-5.999-18.534-11.216z" fill="#b1dbfc"/></g></g></svg>