<svg id="Flat" height="512" viewBox="0 0 64 64" width="512" xmlns="http://www.w3.org/2000/svg"><path d="m33.385 2.282 1.115 3.718h-5l1.115-3.718c.513-1.709 2.257-1.709 2.77 0z" fill="#4c659b"/><path d="m32 53a.75.75 0 0 1 -.75-.75v-20.25a.75.75 0 0 1 1.5 0v20.25a.75.75 0 0 1 -.75.75z" fill="#405587"/><path d="m30.5 51.5v6.5a2 2 0 0 1 -2 2 2 2 0 0 1 -2-2v-.5a1.5 1.5 0 0 0 -1.5-1.5 1.5 1.5 0 0 0 -1.5 1.5v.5a5 5 0 0 0 5 5 5 5 0 0 0 5-5v-6.5a1.5 1.5 0 0 0 -1.5-1.5 1.5 1.5 0 0 0 -1.5 1.5z" fill="#4c659b"/><path d="m37.6 33a7.523 7.523 0 0 1 -11.2 0 7.523 7.523 0 0 1 -11.2 0 7.523 7.523 0 0 1 -11.2 0 28 28 0 0 1 56 0 7.523 7.523 0 0 1 -11.2 0 7.523 7.523 0 0 1 -11.2 0z" fill="#ed6176"/><path d="m35 8a28 28 0 0 0 -27.975 27.028 7.51 7.51 0 0 0 8.175-2.028 7.523 7.523 0 0 0 11.2 0 7.523 7.523 0 0 0 11.2 0 7.523 7.523 0 0 0 11.2 0 7.523 7.523 0 0 0 11.2 0 27.881 27.881 0 0 0 -6.763-18.237 27.881 27.881 0 0 0 -18.237-6.763z" fill="#e14c60"/><path d="m32 5c3.093 0 5.6 12.536 5.6 28a7.523 7.523 0 0 0 11.2 0c0-15.464-7.522-28-16.8-28z" fill="#fffaf0"/><path d="m15.2 33a7.523 7.523 0 0 0 11.2 0c0-15.464 2.507-28 5.6-28-9.278 0-16.8 12.536-16.8 28z" fill="#fffaf0"/><g fill="#f7f0d7"><path d="m34.526 8.012c1.823 4.617 3.074 14.069 3.074 24.988a7.523 7.523 0 0 0 11.2 0c0-10.565-3.512-19.759-8.695-24.527a28.146 28.146 0 0 0 -5.105-.473c-.159 0-.316.009-.474.012z"/><path d="m15.2 33a7.523 7.523 0 0 0 11.2 0c0-10.479 1.152-19.608 2.857-24.408a27.8 27.8 0 0 0 -8.152 3.1c-3.612 5.138-5.905 12.775-5.905 21.308z"/></g></svg>